<mxfile host="app.diagrams.net" modified="2022-07-12T08:04:27.656Z" agent="5.0 (Macintosh; Intel Mac OS X 11_2_3) AppleWebKit/537.36 (KHTML, like Gecko) Chrome/89.0.4389.82 Safari/537.36" etag="qOwntw4sSAhR37Ex_a7_" version="20.0.4" type="github">
  <diagram id="kPlVngTC4E1ux1yeD-od" name="第 1 页">
    <mxGraphModel dx="870" dy="621" grid="1" gridSize="10" guides="1" tooltips="1" connect="1" arrows="1" fold="1" page="1" pageScale="1" pageWidth="827" pageHeight="1169" math="0" shadow="0">
      <root>
        <mxCell id="0" />
        <mxCell id="1" parent="0" />
        <mxCell id="kSlolGZmXo0k-QizPRNo-1" value="&amp;lt;AgGridReact /&amp;gt;" style="text;html=1;strokeColor=none;fillColor=none;align=center;verticalAlign=middle;whiteSpace=wrap;rounded=0;" vertex="1" parent="1">
          <mxGeometry x="70" y="110" width="110" height="30" as="geometry" />
        </mxCell>
        <mxCell id="kSlolGZmXo0k-QizPRNo-2" value="组件挂载，传递参数" style="text;html=1;strokeColor=none;fillColor=none;align=center;verticalAlign=middle;whiteSpace=wrap;rounded=0;" vertex="1" parent="1">
          <mxGeometry x="65" y="60" width="120" height="30" as="geometry" />
        </mxCell>
        <mxCell id="kSlolGZmXo0k-QizPRNo-5" style="edgeStyle=orthogonalEdgeStyle;rounded=0;orthogonalLoop=1;jettySize=auto;html=1;exitX=0;exitY=0.5;exitDx=0;exitDy=0;entryX=1;entryY=0.5;entryDx=0;entryDy=0;" edge="1" parent="1" source="kSlolGZmXo0k-QizPRNo-3" target="kSlolGZmXo0k-QizPRNo-1">
          <mxGeometry relative="1" as="geometry" />
        </mxCell>
        <mxCell id="kSlolGZmXo0k-QizPRNo-3" value="AgGridReact Class" style="rounded=1;whiteSpace=wrap;html=1;" vertex="1" parent="1">
          <mxGeometry x="330" y="40" width="130" height="40" as="geometry" />
        </mxCell>
        <mxCell id="kSlolGZmXo0k-QizPRNo-6" style="edgeStyle=orthogonalEdgeStyle;rounded=0;orthogonalLoop=1;jettySize=auto;html=1;exitX=0;exitY=0.5;exitDx=0;exitDy=0;entryX=1;entryY=0.5;entryDx=0;entryDy=0;" edge="1" parent="1" source="kSlolGZmXo0k-QizPRNo-4" target="kSlolGZmXo0k-QizPRNo-3">
          <mxGeometry relative="1" as="geometry">
            <mxPoint x="470" y="60" as="targetPoint" />
          </mxGeometry>
        </mxCell>
        <mxCell id="kSlolGZmXo0k-QizPRNo-4" value="AgGridReactUi Class" style="rounded=1;whiteSpace=wrap;html=1;" vertex="1" parent="1">
          <mxGeometry x="610" y="40" width="130" height="40" as="geometry" />
        </mxCell>
        <mxCell id="kSlolGZmXo0k-QizPRNo-7" value="props&lt;br&gt;setGridApi" style="text;html=1;strokeColor=none;fillColor=none;align=center;verticalAlign=middle;whiteSpace=wrap;rounded=0;" vertex="1" parent="1">
          <mxGeometry x="510" y="30" width="60" height="30" as="geometry" />
        </mxCell>
        <mxCell id="kSlolGZmXo0k-QizPRNo-10" value="api&lt;br&gt;columnApi" style="text;html=1;strokeColor=none;fillColor=none;align=center;verticalAlign=middle;whiteSpace=wrap;rounded=0;" vertex="1" parent="1">
          <mxGeometry x="365" y="10" width="60" height="30" as="geometry" />
        </mxCell>
        <mxCell id="kSlolGZmXo0k-QizPRNo-11" value="constructor" style="text;html=1;strokeColor=none;fillColor=none;align=center;verticalAlign=middle;whiteSpace=wrap;rounded=0;" vertex="1" parent="1">
          <mxGeometry x="610" y="100" width="60" height="30" as="geometry" />
        </mxCell>
        <mxCell id="kSlolGZmXo0k-QizPRNo-12" value="" style="shape=curlyBracket;whiteSpace=wrap;html=1;rounded=1;size=0.5;" vertex="1" parent="1">
          <mxGeometry x="680" y="90" width="20" height="50" as="geometry" />
        </mxCell>
        <mxCell id="kSlolGZmXo0k-QizPRNo-13" value="生成 portalManager实例" style="text;html=1;strokeColor=none;fillColor=none;align=center;verticalAlign=middle;whiteSpace=wrap;rounded=0;" vertex="1" parent="1">
          <mxGeometry x="700" y="90" width="140" height="20" as="geometry" />
        </mxCell>
        <mxCell id="kSlolGZmXo0k-QizPRNo-14" value="销毁函数集合destoryFuncs" style="text;html=1;strokeColor=none;fillColor=none;align=center;verticalAlign=middle;whiteSpace=wrap;rounded=0;" vertex="1" parent="1">
          <mxGeometry x="697" y="117.5" width="160" height="15" as="geometry" />
        </mxCell>
      </root>
    </mxGraphModel>
  </diagram>
</mxfile>
